<svg xmlns="http://www.w3.org/2000/svg" viewBox="0 0 512 512" width="512" height="512">
  <defs>
    <linearGradient id="bg" x1="0" y1="0" x2="1" y2="1">
      <stop offset="0%" stop-color="#1B4332"/>
      <stop offset="100%" stop-color="#2D6A4F"/>
    </linearGradient>
    <linearGradient id="gold" x1="0" y1="0" x2="1" y2="1">
      <stop offset="0%" stop-color="#B68D40"/>
      <stop offset="100%" stop-color="#D4A853"/>
    </linearGradient>
  </defs>
  <rect x="0" y="0" width="512" height="512" fill="url(#bg)" rx="113"/>
  <!-- Leaf icon -->
  <g transform="translate(112.64, 76.8) scale(5.12)">
    <path d="M50 8 C30 8, 8 28, 8 52 C8 72, 18 82, 18 82 C18 82, 28 62, 50 42 C72 22, 82 12, 82 12 C82 12, 70 8, 50 8Z" fill="url(#gold)" opacity="0.95"/>
    <path d="M18 82 C18 82, 28 72, 50 52" stroke="#1B4332" stroke-width="3" fill="none" stroke-linecap="round" opacity="0.5"/>
  </g>
  <!-- Text -->
  <text x="256" y="368.64" font-family="system-ui, -apple-system, sans-serif" font-size="92.16" font-weight="800" fill="#ffffff" text-anchor="middle" letter-spacing="5.12">GreenKeeper</text>
  <text x="256" y="445.44" font-family="system-ui, -apple-system, sans-serif" font-size="51.2" font-weight="600" fill="#B68D40" text-anchor="middle" letter-spacing="15.36">PRO</text>
</svg>