<svg xmlns="http://www.w3.org/2000/svg" viewBox="0 0 400 400" width="400" height="400">
  <defs>
    <radialGradient id="g17" cx="48%" cy="42%" r="52%" fx="42%" fy="38%">
      <stop offset="0%" stop-color="#8ad47c"/>
      <stop offset="35%" stop-color="#6abf5e"/>
      <stop offset="70%" stop-color="#4fa84a"/>
      <stop offset="100%" stop-color="#3d8b3d"/>
    </radialGradient>
    <radialGradient id="bg17" cx="50%" cy="50%" r="70%">
      <stop offset="0%" stop-color="#2d5a3f"/>
      <stop offset="100%" stop-color="#1f3d2b"/>
    </radialGradient>
    <clipPath id="clip17"><path d="M 143.0 38.6 C 129.2 56.2 83.8 110.8 72.3 138.7 C 60.8 166.6 59.9 191.1 74.0 206.0 C 88.1 221.0 131.5 206.6 156.9 228.5 C 182.2 250.3 207.5 317.1 225.9 337.2 C 244.3 357.3 253.8 349.3 267.3 349.3 C 280.8 349.3 295.5 347.9 307.0 337.2 C 318.5 326.6 332.6 303.3 336.3 285.4 C 340.1 267.6 328.3 242.9 329.4 230.2 C 330.6 217.5 341.2 222.7 343.2 209.5 C 345.3 196.3 347.9 164.6 341.5 150.8 C 335.2 137.0 320.8 131.3 305.3 126.6 C 289.7 122.0 264.7 131.3 248.3 123.2 C 231.9 115.1 215.5 90.4 206.9 78.3 C 198.3 66.2 205.2 58.2 196.5 50.7 C 187.9 43.2 164.0 35.5 155.1 33.5 C 146.2 31.4 156.9 21.1 143.0 38.6 Z"/></clipPath>
    <filter id="soft17" x="-5%" y="-5%" width="110%" height="110%">
      <feGaussianBlur in="SourceGraphic" stdDeviation="1.5"/>
    </filter>
  </defs>
  <!-- Dark fairway background -->
  <rect width="400" height="400" fill="url(#bg17)" rx="16"/>
  <!-- Subtle collar/fringe (slightly larger, darker green) -->
  <g transform="translate(200 200) scale(1.08) translate(-200 -200)">
    <path d="M 143.0 38.6 C 129.2 56.2 83.8 110.8 72.3 138.7 C 60.8 166.6 59.9 191.1 74.0 206.0 C 88.1 221.0 131.5 206.6 156.9 228.5 C 182.2 250.3 207.5 317.1 225.9 337.2 C 244.3 357.3 253.8 349.3 267.3 349.3 C 280.8 349.3 295.5 347.9 307.0 337.2 C 318.5 326.6 332.6 303.3 336.3 285.4 C 340.1 267.6 328.3 242.9 329.4 230.2 C 330.6 217.5 341.2 222.7 343.2 209.5 C 345.3 196.3 347.9 164.6 341.5 150.8 C 335.2 137.0 320.8 131.3 305.3 126.6 C 289.7 122.0 264.7 131.3 248.3 123.2 C 231.9 115.1 215.5 90.4 206.9 78.3 C 198.3 66.2 205.2 58.2 196.5 50.7 C 187.9 43.2 164.0 35.5 155.1 33.5 C 146.2 31.4 156.9 21.1 143.0 38.6 Z" fill="#3a7a3a" opacity="0.6" filter="url(#soft17)"/>
  </g>
  <!-- Main green surface -->
  <path d="M 143.0 38.6 C 129.2 56.2 83.8 110.8 72.3 138.7 C 60.8 166.6 59.9 191.1 74.0 206.0 C 88.1 221.0 131.5 206.6 156.9 228.5 C 182.2 250.3 207.5 317.1 225.9 337.2 C 244.3 357.3 253.8 349.3 267.3 349.3 C 280.8 349.3 295.5 347.9 307.0 337.2 C 318.5 326.6 332.6 303.3 336.3 285.4 C 340.1 267.6 328.3 242.9 329.4 230.2 C 330.6 217.5 341.2 222.7 343.2 209.5 C 345.3 196.3 347.9 164.6 341.5 150.8 C 335.2 137.0 320.8 131.3 305.3 126.6 C 289.7 122.0 264.7 131.3 248.3 123.2 C 231.9 115.1 215.5 90.4 206.9 78.3 C 198.3 66.2 205.2 58.2 196.5 50.7 C 187.9 43.2 164.0 35.5 155.1 33.5 C 146.2 31.4 156.9 21.1 143.0 38.6 Z" fill="url(#g17)" stroke="#4a9e4a" stroke-width="1"/>
  <!-- Mowing stripes clipped to green shape -->
  <g clip-path="url(#clip17)">
    <rect x="0" y="0" width="400" height="14" fill="white" opacity="0.06"/>
    <rect x="0" y="14" width="400" height="14" fill="black" opacity="0.04"/>
    <rect x="0" y="28" width="400" height="14" fill="white" opacity="0.06"/>
    <rect x="0" y="42" width="400" height="14" fill="black" opacity="0.04"/>
    <rect x="0" y="56" width="400" height="14" fill="white" opacity="0.06"/>
    <rect x="0" y="70" width="400" height="14" fill="black" opacity="0.04"/>
    <rect x="0" y="84" width="400" height="14" fill="white" opacity="0.06"/>
    <rect x="0" y="98" width="400" height="14" fill="black" opacity="0.04"/>
    <rect x="0" y="112" width="400" height="14" fill="white" opacity="0.06"/>
    <rect x="0" y="126" width="400" height="14" fill="black" opacity="0.04"/>
    <rect x="0" y="140" width="400" height="14" fill="white" opacity="0.06"/>
    <rect x="0" y="154" width="400" height="14" fill="black" opacity="0.04"/>
    <rect x="0" y="168" width="400" height="14" fill="white" opacity="0.06"/>
    <rect x="0" y="182" width="400" height="14" fill="black" opacity="0.04"/>
    <rect x="0" y="196" width="400" height="14" fill="white" opacity="0.06"/>
    <rect x="0" y="210" width="400" height="14" fill="black" opacity="0.04"/>
    <rect x="0" y="224" width="400" height="14" fill="white" opacity="0.06"/>
    <rect x="0" y="238" width="400" height="14" fill="black" opacity="0.04"/>
    <rect x="0" y="252" width="400" height="14" fill="white" opacity="0.06"/>
    <rect x="0" y="266" width="400" height="14" fill="black" opacity="0.04"/>
    <rect x="0" y="280" width="400" height="14" fill="white" opacity="0.06"/>
    <rect x="0" y="294" width="400" height="14" fill="black" opacity="0.04"/>
    <rect x="0" y="308" width="400" height="14" fill="white" opacity="0.06"/>
    <rect x="0" y="322" width="400" height="14" fill="black" opacity="0.04"/>
    <rect x="0" y="336" width="400" height="14" fill="white" opacity="0.06"/>
    <rect x="0" y="350" width="400" height="14" fill="black" opacity="0.04"/>
    <rect x="0" y="364" width="400" height="14" fill="white" opacity="0.06"/>
    <rect x="0" y="378" width="400" height="14" fill="black" opacity="0.04"/>
    <rect x="0" y="392" width="400" height="14" fill="white" opacity="0.06"/>
  </g>
  <!-- Hole number label -->
  <text x="200.0" y="388" text-anchor="middle" font-family="system-ui, -apple-system, sans-serif" font-size="14" font-weight="600" fill="rgba(255,255,255,0.5)" letter-spacing="1">GREEN 17</text>
</svg>